<mxfile host="app.diagrams.net" modified="2024-01-28T04:57:06.556Z" agent="Mozilla/5.0 (Windows NT 10.0; Win64; x64) AppleWebKit/537.36 (KHTML, like Gecko) Chrome/121.0.0.0 Safari/537.36" etag="CHGfobIwT82TUIbS0W8g" version="23.0.2" type="device">
  <diagram name="Страница — 1" id="5FD7nR56Q4yFlG2jxHn1">
    <mxGraphModel dx="2876" dy="1103" grid="1" gridSize="10" guides="1" tooltips="1" connect="1" arrows="1" fold="1" page="1" pageScale="1" pageWidth="827" pageHeight="1169" math="0" shadow="0">
      <root>
        <mxCell id="0" />
        <mxCell id="1" parent="0" />
        <mxCell id="pnuQFp47O7qtw_fw8b88-24" value="User" style="swimlane;fontStyle=1;childLayout=stackLayout;horizontal=1;startSize=30;horizontalStack=0;resizeParent=1;resizeParentMax=0;resizeLast=0;collapsible=1;marginBottom=0;whiteSpace=wrap;html=1;fillColor=#dae8fc;strokeColor=#6c8ebf;fontFamily=Helvetica;rounded=0;sketch=1;curveFitting=1;jiggle=2;" vertex="1" parent="1">
          <mxGeometry x="-520" y="60" width="160" height="120" as="geometry" />
        </mxCell>
        <mxCell id="pnuQFp47O7qtw_fw8b88-25" value="ID" style="text;strokeColor=none;fillColor=none;align=left;verticalAlign=middle;spacingLeft=4;spacingRight=4;overflow=hidden;points=[[0,0.5],[1,0.5]];portConstraint=eastwest;rotatable=0;whiteSpace=wrap;html=1;fontFamily=Helvetica;fontStyle=1;rounded=0;sketch=1;curveFitting=1;jiggle=2;" vertex="1" parent="pnuQFp47O7qtw_fw8b88-24">
          <mxGeometry y="30" width="160" height="30" as="geometry" />
        </mxCell>
        <mxCell id="pnuQFp47O7qtw_fw8b88-26" value="Username" style="text;strokeColor=none;fillColor=none;align=left;verticalAlign=middle;spacingLeft=4;spacingRight=4;overflow=hidden;points=[[0,0.5],[1,0.5]];portConstraint=eastwest;rotatable=0;whiteSpace=wrap;html=1;fontFamily=Helvetica;fontStyle=1;rounded=0;sketch=1;curveFitting=1;jiggle=2;" vertex="1" parent="pnuQFp47O7qtw_fw8b88-24">
          <mxGeometry y="60" width="160" height="30" as="geometry" />
        </mxCell>
        <mxCell id="pnuQFp47O7qtw_fw8b88-27" value="Email" style="text;strokeColor=none;fillColor=none;align=left;verticalAlign=middle;spacingLeft=4;spacingRight=4;overflow=hidden;points=[[0,0.5],[1,0.5]];portConstraint=eastwest;rotatable=0;whiteSpace=wrap;html=1;fontFamily=Helvetica;fontStyle=1;rounded=0;sketch=1;curveFitting=1;jiggle=2;" vertex="1" parent="pnuQFp47O7qtw_fw8b88-24">
          <mxGeometry y="90" width="160" height="30" as="geometry" />
        </mxCell>
        <mxCell id="pnuQFp47O7qtw_fw8b88-28" value="Profile" style="swimlane;fontStyle=1;childLayout=stackLayout;horizontal=1;startSize=30;horizontalStack=0;resizeParent=1;resizeParentMax=0;resizeLast=0;collapsible=1;marginBottom=0;whiteSpace=wrap;html=1;fillColor=#d5e8d4;strokeColor=#82b366;fontFamily=Helvetica;rounded=0;sketch=1;curveFitting=1;jiggle=2;" vertex="1" parent="1">
          <mxGeometry x="-760" y="60" width="160" height="240" as="geometry" />
        </mxCell>
        <mxCell id="pnuQFp47O7qtw_fw8b88-29" value="ID" style="text;strokeColor=none;fillColor=none;align=left;verticalAlign=middle;spacingLeft=4;spacingRight=4;overflow=hidden;points=[[0,0.5],[1,0.5]];portConstraint=eastwest;rotatable=0;whiteSpace=wrap;html=1;fontFamily=Helvetica;fontStyle=1;rounded=0;sketch=1;curveFitting=1;jiggle=2;" vertex="1" parent="pnuQFp47O7qtw_fw8b88-28">
          <mxGeometry y="30" width="160" height="30" as="geometry" />
        </mxCell>
        <mxCell id="pnuQFp47O7qtw_fw8b88-30" value="User" style="text;strokeColor=none;fillColor=none;align=left;verticalAlign=middle;spacingLeft=4;spacingRight=4;overflow=hidden;points=[[0,0.5],[1,0.5]];portConstraint=eastwest;rotatable=0;whiteSpace=wrap;html=1;fontFamily=Helvetica;fontStyle=1;rounded=0;sketch=1;curveFitting=1;jiggle=2;" vertex="1" parent="pnuQFp47O7qtw_fw8b88-28">
          <mxGeometry y="60" width="160" height="30" as="geometry" />
        </mxCell>
        <mxCell id="pnuQFp47O7qtw_fw8b88-31" value="Name" style="text;strokeColor=none;fillColor=none;align=left;verticalAlign=middle;spacingLeft=4;spacingRight=4;overflow=hidden;points=[[0,0.5],[1,0.5]];portConstraint=eastwest;rotatable=0;whiteSpace=wrap;html=1;fontFamily=Helvetica;fontStyle=1;rounded=0;sketch=1;curveFitting=1;jiggle=2;" vertex="1" parent="pnuQFp47O7qtw_fw8b88-28">
          <mxGeometry y="90" width="160" height="30" as="geometry" />
        </mxCell>
        <mxCell id="pnuQFp47O7qtw_fw8b88-32" value="Avatar" style="text;strokeColor=none;fillColor=none;align=left;verticalAlign=middle;spacingLeft=4;spacingRight=4;overflow=hidden;points=[[0,0.5],[1,0.5]];portConstraint=eastwest;rotatable=0;whiteSpace=wrap;html=1;fontFamily=Helvetica;fontStyle=1;rounded=0;sketch=1;curveFitting=1;jiggle=2;" vertex="1" parent="pnuQFp47O7qtw_fw8b88-28">
          <mxGeometry y="120" width="160" height="30" as="geometry" />
        </mxCell>
        <mxCell id="pnuQFp47O7qtw_fw8b88-33" value="Birth Date" style="text;strokeColor=none;fillColor=none;align=left;verticalAlign=middle;spacingLeft=4;spacingRight=4;overflow=hidden;points=[[0,0.5],[1,0.5]];portConstraint=eastwest;rotatable=0;whiteSpace=wrap;html=1;fontFamily=Helvetica;fontStyle=1;rounded=0;sketch=1;curveFitting=1;jiggle=2;" vertex="1" parent="pnuQFp47O7qtw_fw8b88-28">
          <mxGeometry y="150" width="160" height="30" as="geometry" />
        </mxCell>
        <mxCell id="pnuQFp47O7qtw_fw8b88-35" value="Location" style="text;strokeColor=none;fillColor=none;align=left;verticalAlign=middle;spacingLeft=4;spacingRight=4;overflow=hidden;points=[[0,0.5],[1,0.5]];portConstraint=eastwest;rotatable=0;whiteSpace=wrap;html=1;fontFamily=Helvetica;fontStyle=1;rounded=0;sketch=1;curveFitting=1;jiggle=2;" vertex="1" parent="pnuQFp47O7qtw_fw8b88-28">
          <mxGeometry y="180" width="160" height="30" as="geometry" />
        </mxCell>
        <mxCell id="pnuQFp47O7qtw_fw8b88-34" value="Bio" style="text;strokeColor=none;fillColor=none;align=left;verticalAlign=middle;spacingLeft=4;spacingRight=4;overflow=hidden;points=[[0,0.5],[1,0.5]];portConstraint=eastwest;rotatable=0;whiteSpace=wrap;html=1;fontFamily=Helvetica;fontStyle=1;rounded=0;sketch=1;curveFitting=1;jiggle=2;" vertex="1" parent="pnuQFp47O7qtw_fw8b88-28">
          <mxGeometry y="210" width="160" height="30" as="geometry" />
        </mxCell>
        <mxCell id="pnuQFp47O7qtw_fw8b88-36" value="Post" style="swimlane;fontStyle=1;childLayout=stackLayout;horizontal=1;startSize=30;horizontalStack=0;resizeParent=1;resizeParentMax=0;resizeLast=0;collapsible=1;marginBottom=0;whiteSpace=wrap;html=1;fillColor=#ffe6cc;strokeColor=#d79b00;fontFamily=Helvetica;align=center;rounded=0;sketch=1;curveFitting=1;jiggle=2;" vertex="1" parent="1">
          <mxGeometry x="-760" y="340" width="160" height="240" as="geometry" />
        </mxCell>
        <mxCell id="pnuQFp47O7qtw_fw8b88-37" value="ID" style="text;strokeColor=none;fillColor=none;align=left;verticalAlign=middle;spacingLeft=4;spacingRight=4;overflow=hidden;points=[[0,0.5],[1,0.5]];portConstraint=eastwest;rotatable=0;whiteSpace=wrap;html=1;fontFamily=Helvetica;fontStyle=1;rounded=0;sketch=1;curveFitting=1;jiggle=2;" vertex="1" parent="pnuQFp47O7qtw_fw8b88-36">
          <mxGeometry y="30" width="160" height="30" as="geometry" />
        </mxCell>
        <mxCell id="pnuQFp47O7qtw_fw8b88-38" value="User" style="text;strokeColor=none;fillColor=none;align=left;verticalAlign=middle;spacingLeft=4;spacingRight=4;overflow=hidden;points=[[0,0.5],[1,0.5]];portConstraint=eastwest;rotatable=0;whiteSpace=wrap;html=1;fontFamily=Helvetica;fontStyle=1;rounded=0;sketch=1;curveFitting=1;jiggle=2;" vertex="1" parent="pnuQFp47O7qtw_fw8b88-36">
          <mxGeometry y="60" width="160" height="30" as="geometry" />
        </mxCell>
        <mxCell id="pnuQFp47O7qtw_fw8b88-110" value="Category" style="text;strokeColor=none;fillColor=none;align=left;verticalAlign=middle;spacingLeft=4;spacingRight=4;overflow=hidden;points=[[0,0.5],[1,0.5]];portConstraint=eastwest;rotatable=0;whiteSpace=wrap;html=1;fontFamily=Helvetica;fontStyle=1;rounded=0;sketch=1;curveFitting=1;jiggle=2;" vertex="1" parent="pnuQFp47O7qtw_fw8b88-36">
          <mxGeometry y="90" width="160" height="30" as="geometry" />
        </mxCell>
        <mxCell id="pnuQFp47O7qtw_fw8b88-111" value="Tags" style="text;strokeColor=none;fillColor=none;align=left;verticalAlign=middle;spacingLeft=4;spacingRight=4;overflow=hidden;points=[[0,0.5],[1,0.5]];portConstraint=eastwest;rotatable=0;whiteSpace=wrap;html=1;fontFamily=Helvetica;fontStyle=1;rounded=0;sketch=1;curveFitting=1;jiggle=2;" vertex="1" parent="pnuQFp47O7qtw_fw8b88-36">
          <mxGeometry y="120" width="160" height="30" as="geometry" />
        </mxCell>
        <mxCell id="pnuQFp47O7qtw_fw8b88-39" value="Content" style="text;strokeColor=none;fillColor=none;align=left;verticalAlign=middle;spacingLeft=4;spacingRight=4;overflow=hidden;points=[[0,0.5],[1,0.5]];portConstraint=eastwest;rotatable=0;whiteSpace=wrap;html=1;fontFamily=Helvetica;fontStyle=1;rounded=0;sketch=1;curveFitting=1;jiggle=2;" vertex="1" parent="pnuQFp47O7qtw_fw8b88-36">
          <mxGeometry y="150" width="160" height="30" as="geometry" />
        </mxCell>
        <mxCell id="pnuQFp47O7qtw_fw8b88-40" value="Image" style="text;strokeColor=none;fillColor=none;align=left;verticalAlign=middle;spacingLeft=4;spacingRight=4;overflow=hidden;points=[[0,0.5],[1,0.5]];portConstraint=eastwest;rotatable=0;whiteSpace=wrap;html=1;fontFamily=Helvetica;fontStyle=1;rounded=0;sketch=1;curveFitting=1;jiggle=2;" vertex="1" parent="pnuQFp47O7qtw_fw8b88-36">
          <mxGeometry y="180" width="160" height="30" as="geometry" />
        </mxCell>
        <mxCell id="pnuQFp47O7qtw_fw8b88-41" value="Creation Date" style="text;strokeColor=none;fillColor=none;align=left;verticalAlign=middle;spacingLeft=4;spacingRight=4;overflow=hidden;points=[[0,0.5],[1,0.5]];portConstraint=eastwest;rotatable=0;whiteSpace=wrap;html=1;fontFamily=Helvetica;fontStyle=1;rounded=0;sketch=1;curveFitting=1;jiggle=2;" vertex="1" parent="pnuQFp47O7qtw_fw8b88-36">
          <mxGeometry y="210" width="160" height="30" as="geometry" />
        </mxCell>
        <mxCell id="pnuQFp47O7qtw_fw8b88-46" value="Comment" style="swimlane;fontStyle=1;childLayout=stackLayout;horizontal=1;startSize=30;horizontalStack=0;resizeParent=1;resizeParentMax=0;resizeLast=0;collapsible=1;marginBottom=0;whiteSpace=wrap;html=1;fillColor=#e1d5e7;strokeColor=#9673a6;fontFamily=Helvetica;align=center;rounded=0;sketch=1;curveFitting=1;jiggle=2;" vertex="1" parent="1">
          <mxGeometry x="-520" y="340" width="160" height="210" as="geometry" />
        </mxCell>
        <mxCell id="pnuQFp47O7qtw_fw8b88-47" value="ID" style="text;strokeColor=none;fillColor=none;align=left;verticalAlign=middle;spacingLeft=4;spacingRight=4;overflow=hidden;points=[[0,0.5],[1,0.5]];portConstraint=eastwest;rotatable=0;whiteSpace=wrap;html=1;fontFamily=Helvetica;fontStyle=1;rounded=0;sketch=1;curveFitting=1;jiggle=2;" vertex="1" parent="pnuQFp47O7qtw_fw8b88-46">
          <mxGeometry y="30" width="160" height="30" as="geometry" />
        </mxCell>
        <mxCell id="pnuQFp47O7qtw_fw8b88-48" value="User" style="text;strokeColor=none;fillColor=none;align=left;verticalAlign=middle;spacingLeft=4;spacingRight=4;overflow=hidden;points=[[0,0.5],[1,0.5]];portConstraint=eastwest;rotatable=0;whiteSpace=wrap;html=1;fontFamily=Helvetica;fontStyle=1;rounded=0;sketch=1;curveFitting=1;jiggle=2;" vertex="1" parent="pnuQFp47O7qtw_fw8b88-46">
          <mxGeometry y="60" width="160" height="30" as="geometry" />
        </mxCell>
        <mxCell id="pnuQFp47O7qtw_fw8b88-52" value="Post" style="text;strokeColor=none;fillColor=none;align=left;verticalAlign=middle;spacingLeft=4;spacingRight=4;overflow=hidden;points=[[0,0.5],[1,0.5]];portConstraint=eastwest;rotatable=0;whiteSpace=wrap;html=1;fontFamily=Helvetica;fontStyle=1;rounded=0;sketch=1;curveFitting=1;jiggle=2;" vertex="1" parent="pnuQFp47O7qtw_fw8b88-46">
          <mxGeometry y="90" width="160" height="30" as="geometry" />
        </mxCell>
        <mxCell id="pnuQFp47O7qtw_fw8b88-49" value="Content" style="text;strokeColor=none;fillColor=none;align=left;verticalAlign=middle;spacingLeft=4;spacingRight=4;overflow=hidden;points=[[0,0.5],[1,0.5]];portConstraint=eastwest;rotatable=0;whiteSpace=wrap;html=1;fontFamily=Helvetica;fontStyle=1;rounded=0;sketch=1;curveFitting=1;jiggle=2;" vertex="1" parent="pnuQFp47O7qtw_fw8b88-46">
          <mxGeometry y="120" width="160" height="30" as="geometry" />
        </mxCell>
        <mxCell id="pnuQFp47O7qtw_fw8b88-50" value="Image" style="text;strokeColor=none;fillColor=none;align=left;verticalAlign=middle;spacingLeft=4;spacingRight=4;overflow=hidden;points=[[0,0.5],[1,0.5]];portConstraint=eastwest;rotatable=0;whiteSpace=wrap;html=1;fontFamily=Helvetica;fontStyle=1;rounded=0;sketch=1;curveFitting=1;jiggle=2;" vertex="1" parent="pnuQFp47O7qtw_fw8b88-46">
          <mxGeometry y="150" width="160" height="30" as="geometry" />
        </mxCell>
        <mxCell id="pnuQFp47O7qtw_fw8b88-51" value="Creation Date" style="text;strokeColor=none;fillColor=none;align=left;verticalAlign=middle;spacingLeft=4;spacingRight=4;overflow=hidden;points=[[0,0.5],[1,0.5]];portConstraint=eastwest;rotatable=0;whiteSpace=wrap;html=1;fontFamily=Helvetica;fontStyle=1;labelBorderColor=none;labelBackgroundColor=none;rounded=0;sketch=1;curveFitting=1;jiggle=2;" vertex="1" parent="pnuQFp47O7qtw_fw8b88-46">
          <mxGeometry y="180" width="160" height="30" as="geometry" />
        </mxCell>
        <mxCell id="pnuQFp47O7qtw_fw8b88-54" value="Like" style="swimlane;fontStyle=1;childLayout=stackLayout;horizontal=1;startSize=30;horizontalStack=0;resizeParent=1;resizeParentMax=0;resizeLast=0;collapsible=1;marginBottom=0;whiteSpace=wrap;html=1;fillColor=#f8cecc;strokeColor=#b85450;fontFamily=Helvetica;align=center;rounded=0;sketch=1;curveFitting=1;jiggle=2;" vertex="1" parent="1">
          <mxGeometry x="-520" y="200" width="160" height="120" as="geometry" />
        </mxCell>
        <mxCell id="pnuQFp47O7qtw_fw8b88-55" value="ID" style="text;strokeColor=none;fillColor=none;align=left;verticalAlign=middle;spacingLeft=4;spacingRight=4;overflow=hidden;points=[[0,0.5],[1,0.5]];portConstraint=eastwest;rotatable=0;whiteSpace=wrap;html=1;fontFamily=Helvetica;fontStyle=1;rounded=0;sketch=1;curveFitting=1;jiggle=2;" vertex="1" parent="pnuQFp47O7qtw_fw8b88-54">
          <mxGeometry y="30" width="160" height="30" as="geometry" />
        </mxCell>
        <mxCell id="pnuQFp47O7qtw_fw8b88-56" value="User" style="text;strokeColor=none;fillColor=none;align=left;verticalAlign=middle;spacingLeft=4;spacingRight=4;overflow=hidden;points=[[0,0.5],[1,0.5]];portConstraint=eastwest;rotatable=0;whiteSpace=wrap;html=1;fontFamily=Helvetica;fontStyle=1;rounded=0;sketch=1;curveFitting=1;jiggle=2;" vertex="1" parent="pnuQFp47O7qtw_fw8b88-54">
          <mxGeometry y="60" width="160" height="30" as="geometry" />
        </mxCell>
        <mxCell id="pnuQFp47O7qtw_fw8b88-57" value="Post" style="text;strokeColor=none;fillColor=none;align=left;verticalAlign=middle;spacingLeft=4;spacingRight=4;overflow=hidden;points=[[0,0.5],[1,0.5]];portConstraint=eastwest;rotatable=0;whiteSpace=wrap;html=1;fontFamily=Helvetica;fontStyle=1;rounded=0;sketch=1;curveFitting=1;jiggle=2;" vertex="1" parent="pnuQFp47O7qtw_fw8b88-54">
          <mxGeometry y="90" width="160" height="30" as="geometry" />
        </mxCell>
        <mxCell id="pnuQFp47O7qtw_fw8b88-85" style="edgeStyle=orthogonalEdgeStyle;rounded=0;orthogonalLoop=1;jettySize=auto;html=1;entryX=1;entryY=0.5;entryDx=0;entryDy=0;fontFamily=Helvetica;fontStyle=1;align=left;sketch=1;curveFitting=1;jiggle=2;" edge="1" parent="1" source="pnuQFp47O7qtw_fw8b88-48" target="pnuQFp47O7qtw_fw8b88-25">
          <mxGeometry relative="1" as="geometry">
            <Array as="points">
              <mxPoint x="-320" y="415" />
              <mxPoint x="-320" y="105" />
            </Array>
          </mxGeometry>
        </mxCell>
        <mxCell id="pnuQFp47O7qtw_fw8b88-86" style="edgeStyle=orthogonalEdgeStyle;rounded=0;orthogonalLoop=1;jettySize=auto;html=1;entryX=1;entryY=0.5;entryDx=0;entryDy=0;fontFamily=Helvetica;fontStyle=1;align=left;sketch=1;curveFitting=1;jiggle=2;" edge="1" parent="1" source="pnuQFp47O7qtw_fw8b88-56" target="pnuQFp47O7qtw_fw8b88-25">
          <mxGeometry relative="1" as="geometry">
            <Array as="points">
              <mxPoint x="-320" y="275" />
              <mxPoint x="-320" y="105" />
            </Array>
          </mxGeometry>
        </mxCell>
        <mxCell id="pnuQFp47O7qtw_fw8b88-88" style="edgeStyle=orthogonalEdgeStyle;rounded=0;orthogonalLoop=1;jettySize=auto;html=1;entryX=0;entryY=0.5;entryDx=0;entryDy=0;fontFamily=Helvetica;sketch=1;curveFitting=1;jiggle=2;" edge="1" parent="1" source="pnuQFp47O7qtw_fw8b88-30" target="pnuQFp47O7qtw_fw8b88-25">
          <mxGeometry relative="1" as="geometry">
            <Array as="points">
              <mxPoint x="-800" y="135" />
              <mxPoint x="-800" y="40" />
              <mxPoint x="-560" y="40" />
              <mxPoint x="-560" y="105" />
            </Array>
          </mxGeometry>
        </mxCell>
        <mxCell id="pnuQFp47O7qtw_fw8b88-89" style="edgeStyle=orthogonalEdgeStyle;rounded=0;orthogonalLoop=1;jettySize=auto;html=1;entryX=0;entryY=0.5;entryDx=0;entryDy=0;fontFamily=Helvetica;sketch=1;curveFitting=1;jiggle=2;" edge="1" parent="1" source="pnuQFp47O7qtw_fw8b88-38" target="pnuQFp47O7qtw_fw8b88-25">
          <mxGeometry relative="1" as="geometry">
            <Array as="points">
              <mxPoint x="-800" y="415" />
              <mxPoint x="-800" y="40" />
              <mxPoint x="-560" y="40" />
              <mxPoint x="-560" y="105" />
            </Array>
          </mxGeometry>
        </mxCell>
        <mxCell id="pnuQFp47O7qtw_fw8b88-90" style="edgeStyle=orthogonalEdgeStyle;rounded=0;orthogonalLoop=1;jettySize=auto;html=1;entryX=1;entryY=0.5;entryDx=0;entryDy=0;fontFamily=Helvetica;fontStyle=1;align=left;sketch=1;curveFitting=1;jiggle=2;" edge="1" parent="1" source="pnuQFp47O7qtw_fw8b88-52" target="pnuQFp47O7qtw_fw8b88-37">
          <mxGeometry relative="1" as="geometry" />
        </mxCell>
        <mxCell id="pnuQFp47O7qtw_fw8b88-91" style="edgeStyle=orthogonalEdgeStyle;rounded=0;orthogonalLoop=1;jettySize=auto;html=1;entryX=1;entryY=0.5;entryDx=0;entryDy=0;fontFamily=Helvetica;fontStyle=1;align=left;sketch=1;curveFitting=1;jiggle=2;" edge="1" parent="1" source="pnuQFp47O7qtw_fw8b88-57" target="pnuQFp47O7qtw_fw8b88-37">
          <mxGeometry relative="1" as="geometry" />
        </mxCell>
        <mxCell id="pnuQFp47O7qtw_fw8b88-93" value="Group" style="swimlane;fontStyle=1;childLayout=stackLayout;horizontal=1;startSize=30;horizontalStack=0;resizeParent=1;resizeParentMax=0;resizeLast=0;collapsible=1;marginBottom=0;whiteSpace=wrap;html=1;fontFamily=Helvetica;rounded=0;sketch=1;curveFitting=1;jiggle=2;fillColor=#b0e3e6;strokeColor=#0e8088;" vertex="1" parent="1">
          <mxGeometry x="-280" y="60" width="160" height="120" as="geometry" />
        </mxCell>
        <mxCell id="pnuQFp47O7qtw_fw8b88-94" value="ID" style="text;strokeColor=none;fillColor=none;align=left;verticalAlign=middle;spacingLeft=4;spacingRight=4;overflow=hidden;points=[[0,0.5],[1,0.5]];portConstraint=eastwest;rotatable=0;whiteSpace=wrap;html=1;fontFamily=Helvetica;fontStyle=1;rounded=0;sketch=1;curveFitting=1;jiggle=2;" vertex="1" parent="pnuQFp47O7qtw_fw8b88-93">
          <mxGeometry y="30" width="160" height="30" as="geometry" />
        </mxCell>
        <mxCell id="pnuQFp47O7qtw_fw8b88-95" value="Users" style="text;strokeColor=none;fillColor=none;align=left;verticalAlign=middle;spacingLeft=4;spacingRight=4;overflow=hidden;points=[[0,0.5],[1,0.5]];portConstraint=eastwest;rotatable=0;whiteSpace=wrap;html=1;fontFamily=Helvetica;fontStyle=1;rounded=0;sketch=1;curveFitting=1;jiggle=2;" vertex="1" parent="pnuQFp47O7qtw_fw8b88-93">
          <mxGeometry y="60" width="160" height="30" as="geometry" />
        </mxCell>
        <mxCell id="pnuQFp47O7qtw_fw8b88-96" value="Actions" style="text;strokeColor=none;fillColor=none;align=left;verticalAlign=middle;spacingLeft=4;spacingRight=4;overflow=hidden;points=[[0,0.5],[1,0.5]];portConstraint=eastwest;rotatable=0;whiteSpace=wrap;html=1;fontFamily=Helvetica;fontStyle=1;rounded=0;sketch=1;curveFitting=1;jiggle=2;" vertex="1" parent="pnuQFp47O7qtw_fw8b88-93">
          <mxGeometry y="90" width="160" height="30" as="geometry" />
        </mxCell>
        <mxCell id="pnuQFp47O7qtw_fw8b88-97" style="edgeStyle=orthogonalEdgeStyle;rounded=0;orthogonalLoop=1;jettySize=auto;html=1;entryX=1;entryY=0.5;entryDx=0;entryDy=0;sketch=1;curveFitting=1;jiggle=2;" edge="1" parent="1" source="pnuQFp47O7qtw_fw8b88-95" target="pnuQFp47O7qtw_fw8b88-25">
          <mxGeometry relative="1" as="geometry" />
        </mxCell>
        <mxCell id="pnuQFp47O7qtw_fw8b88-98" value="Action" style="swimlane;fontStyle=1;childLayout=stackLayout;horizontal=1;startSize=30;horizontalStack=0;resizeParent=1;resizeParentMax=0;resizeLast=0;collapsible=1;marginBottom=0;whiteSpace=wrap;html=1;fontFamily=Helvetica;rounded=0;fillColor=#b1ddf0;strokeColor=#10739e;sketch=1;curveFitting=1;jiggle=2;" vertex="1" parent="1">
          <mxGeometry x="-280" y="200" width="160" height="120" as="geometry" />
        </mxCell>
        <mxCell id="pnuQFp47O7qtw_fw8b88-99" value="ID" style="text;strokeColor=none;fillColor=none;align=left;verticalAlign=middle;spacingLeft=4;spacingRight=4;overflow=hidden;points=[[0,0.5],[1,0.5]];portConstraint=eastwest;rotatable=0;whiteSpace=wrap;html=1;fontFamily=Helvetica;fontStyle=1;rounded=0;sketch=1;curveFitting=1;jiggle=2;" vertex="1" parent="pnuQFp47O7qtw_fw8b88-98">
          <mxGeometry y="30" width="160" height="30" as="geometry" />
        </mxCell>
        <mxCell id="pnuQFp47O7qtw_fw8b88-100" value="Name" style="text;strokeColor=none;fillColor=none;align=left;verticalAlign=middle;spacingLeft=4;spacingRight=4;overflow=hidden;points=[[0,0.5],[1,0.5]];portConstraint=eastwest;rotatable=0;whiteSpace=wrap;html=1;fontFamily=Helvetica;fontStyle=1;rounded=0;sketch=1;curveFitting=1;jiggle=2;" vertex="1" parent="pnuQFp47O7qtw_fw8b88-98">
          <mxGeometry y="60" width="160" height="30" as="geometry" />
        </mxCell>
        <mxCell id="pnuQFp47O7qtw_fw8b88-101" value="Slug" style="text;strokeColor=none;fillColor=none;align=left;verticalAlign=middle;spacingLeft=4;spacingRight=4;overflow=hidden;points=[[0,0.5],[1,0.5]];portConstraint=eastwest;rotatable=0;whiteSpace=wrap;html=1;fontFamily=Helvetica;fontStyle=1;rounded=0;sketch=1;curveFitting=1;jiggle=2;" vertex="1" parent="pnuQFp47O7qtw_fw8b88-98">
          <mxGeometry y="90" width="160" height="30" as="geometry" />
        </mxCell>
        <mxCell id="pnuQFp47O7qtw_fw8b88-103" style="edgeStyle=orthogonalEdgeStyle;rounded=0;orthogonalLoop=1;jettySize=auto;html=1;entryX=1;entryY=0.5;entryDx=0;entryDy=0;sketch=1;curveFitting=1;jiggle=2;" edge="1" parent="1" source="pnuQFp47O7qtw_fw8b88-96" target="pnuQFp47O7qtw_fw8b88-99">
          <mxGeometry relative="1" as="geometry">
            <Array as="points">
              <mxPoint x="-80" y="165" />
              <mxPoint x="-80" y="245" />
            </Array>
          </mxGeometry>
        </mxCell>
        <mxCell id="pnuQFp47O7qtw_fw8b88-104" value="Category" style="swimlane;fontStyle=1;childLayout=stackLayout;horizontal=1;startSize=30;horizontalStack=0;resizeParent=1;resizeParentMax=0;resizeLast=0;collapsible=1;marginBottom=0;whiteSpace=wrap;html=1;fillColor=#d0cee2;strokeColor=#56517e;fontFamily=Helvetica;align=center;rounded=0;sketch=1;curveFitting=1;jiggle=2;" vertex="1" parent="1">
          <mxGeometry x="-760" y="600" width="160" height="120" as="geometry" />
        </mxCell>
        <mxCell id="pnuQFp47O7qtw_fw8b88-105" value="ID" style="text;strokeColor=none;fillColor=none;align=left;verticalAlign=middle;spacingLeft=4;spacingRight=4;overflow=hidden;points=[[0,0.5],[1,0.5]];portConstraint=eastwest;rotatable=0;whiteSpace=wrap;html=1;fontFamily=Helvetica;fontStyle=1;rounded=0;sketch=1;curveFitting=1;jiggle=2;" vertex="1" parent="pnuQFp47O7qtw_fw8b88-104">
          <mxGeometry y="30" width="160" height="30" as="geometry" />
        </mxCell>
        <mxCell id="pnuQFp47O7qtw_fw8b88-106" value="Name" style="text;strokeColor=none;fillColor=none;align=left;verticalAlign=middle;spacingLeft=4;spacingRight=4;overflow=hidden;points=[[0,0.5],[1,0.5]];portConstraint=eastwest;rotatable=0;whiteSpace=wrap;html=1;fontFamily=Helvetica;fontStyle=1;rounded=0;sketch=1;curveFitting=1;jiggle=2;" vertex="1" parent="pnuQFp47O7qtw_fw8b88-104">
          <mxGeometry y="60" width="160" height="30" as="geometry" />
        </mxCell>
        <mxCell id="pnuQFp47O7qtw_fw8b88-107" value="Slug" style="text;strokeColor=none;fillColor=none;align=left;verticalAlign=middle;spacingLeft=4;spacingRight=4;overflow=hidden;points=[[0,0.5],[1,0.5]];portConstraint=eastwest;rotatable=0;whiteSpace=wrap;html=1;fontFamily=Helvetica;fontStyle=1;rounded=0;sketch=1;curveFitting=1;jiggle=2;" vertex="1" parent="pnuQFp47O7qtw_fw8b88-104">
          <mxGeometry y="90" width="160" height="30" as="geometry" />
        </mxCell>
        <mxCell id="pnuQFp47O7qtw_fw8b88-112" style="edgeStyle=orthogonalEdgeStyle;rounded=0;sketch=1;hachureGap=4;jiggle=2;curveFitting=1;orthogonalLoop=1;jettySize=auto;html=1;entryX=0;entryY=0.5;entryDx=0;entryDy=0;fontFamily=Architects Daughter;fontSource=https%3A%2F%2Ffonts.googleapis.com%2Fcss%3Ffamily%3DArchitects%2BDaughter;fontSize=16;" edge="1" parent="1" source="pnuQFp47O7qtw_fw8b88-110" target="pnuQFp47O7qtw_fw8b88-105">
          <mxGeometry relative="1" as="geometry">
            <Array as="points">
              <mxPoint x="-800" y="445" />
              <mxPoint x="-800" y="645" />
            </Array>
          </mxGeometry>
        </mxCell>
        <mxCell id="pnuQFp47O7qtw_fw8b88-113" value="Tag" style="swimlane;fontStyle=1;childLayout=stackLayout;horizontal=1;startSize=30;horizontalStack=0;resizeParent=1;resizeParentMax=0;resizeLast=0;collapsible=1;marginBottom=0;whiteSpace=wrap;html=1;fillColor=#bac8d3;strokeColor=#23445d;fontFamily=Helvetica;align=center;rounded=0;sketch=1;curveFitting=1;jiggle=2;" vertex="1" parent="1">
          <mxGeometry x="-760" y="750" width="160" height="120" as="geometry" />
        </mxCell>
        <mxCell id="pnuQFp47O7qtw_fw8b88-114" value="ID" style="text;strokeColor=none;fillColor=none;align=left;verticalAlign=middle;spacingLeft=4;spacingRight=4;overflow=hidden;points=[[0,0.5],[1,0.5]];portConstraint=eastwest;rotatable=0;whiteSpace=wrap;html=1;fontFamily=Helvetica;fontStyle=1;rounded=0;sketch=1;curveFitting=1;jiggle=2;" vertex="1" parent="pnuQFp47O7qtw_fw8b88-113">
          <mxGeometry y="30" width="160" height="30" as="geometry" />
        </mxCell>
        <mxCell id="pnuQFp47O7qtw_fw8b88-115" value="Name" style="text;strokeColor=none;fillColor=none;align=left;verticalAlign=middle;spacingLeft=4;spacingRight=4;overflow=hidden;points=[[0,0.5],[1,0.5]];portConstraint=eastwest;rotatable=0;whiteSpace=wrap;html=1;fontFamily=Helvetica;fontStyle=1;rounded=0;sketch=1;curveFitting=1;jiggle=2;" vertex="1" parent="pnuQFp47O7qtw_fw8b88-113">
          <mxGeometry y="60" width="160" height="30" as="geometry" />
        </mxCell>
        <mxCell id="pnuQFp47O7qtw_fw8b88-116" value="Slug" style="text;strokeColor=none;fillColor=none;align=left;verticalAlign=middle;spacingLeft=4;spacingRight=4;overflow=hidden;points=[[0,0.5],[1,0.5]];portConstraint=eastwest;rotatable=0;whiteSpace=wrap;html=1;fontFamily=Helvetica;fontStyle=1;rounded=0;sketch=1;curveFitting=1;jiggle=2;" vertex="1" parent="pnuQFp47O7qtw_fw8b88-113">
          <mxGeometry y="90" width="160" height="30" as="geometry" />
        </mxCell>
        <mxCell id="pnuQFp47O7qtw_fw8b88-117" style="edgeStyle=orthogonalEdgeStyle;rounded=0;sketch=1;hachureGap=4;jiggle=2;curveFitting=1;orthogonalLoop=1;jettySize=auto;html=1;entryX=0;entryY=0.5;entryDx=0;entryDy=0;fontFamily=Architects Daughter;fontSource=https%3A%2F%2Ffonts.googleapis.com%2Fcss%3Ffamily%3DArchitects%2BDaughter;fontSize=16;" edge="1" parent="1" source="pnuQFp47O7qtw_fw8b88-111" target="pnuQFp47O7qtw_fw8b88-114">
          <mxGeometry relative="1" as="geometry">
            <Array as="points">
              <mxPoint x="-800" y="475" />
              <mxPoint x="-800" y="795" />
            </Array>
          </mxGeometry>
        </mxCell>
        <mxCell id="pnuQFp47O7qtw_fw8b88-118" value="Report" style="swimlane;fontStyle=1;childLayout=stackLayout;horizontal=1;startSize=30;horizontalStack=0;resizeParent=1;resizeParentMax=0;resizeLast=0;collapsible=1;marginBottom=0;whiteSpace=wrap;html=1;fillColor=#fad9d5;strokeColor=#FF5F49;fontFamily=Helvetica;align=center;rounded=0;sketch=1;curveFitting=1;jiggle=2;" vertex="1" parent="1">
          <mxGeometry x="-520" y="580" width="160" height="180" as="geometry" />
        </mxCell>
        <mxCell id="pnuQFp47O7qtw_fw8b88-119" value="ID" style="text;strokeColor=none;fillColor=none;align=left;verticalAlign=middle;spacingLeft=4;spacingRight=4;overflow=hidden;points=[[0,0.5],[1,0.5]];portConstraint=eastwest;rotatable=0;whiteSpace=wrap;html=1;fontFamily=Helvetica;fontStyle=1;rounded=0;sketch=1;curveFitting=1;jiggle=2;" vertex="1" parent="pnuQFp47O7qtw_fw8b88-118">
          <mxGeometry y="30" width="160" height="30" as="geometry" />
        </mxCell>
        <mxCell id="pnuQFp47O7qtw_fw8b88-120" value="User" style="text;strokeColor=none;fillColor=none;align=left;verticalAlign=middle;spacingLeft=4;spacingRight=4;overflow=hidden;points=[[0,0.5],[1,0.5]];portConstraint=eastwest;rotatable=0;whiteSpace=wrap;html=1;fontFamily=Helvetica;fontStyle=1;rounded=0;sketch=1;curveFitting=1;jiggle=2;" vertex="1" parent="pnuQFp47O7qtw_fw8b88-118">
          <mxGeometry y="60" width="160" height="30" as="geometry" />
        </mxCell>
        <mxCell id="pnuQFp47O7qtw_fw8b88-121" value="Post" style="text;strokeColor=none;fillColor=none;align=left;verticalAlign=middle;spacingLeft=4;spacingRight=4;overflow=hidden;points=[[0,0.5],[1,0.5]];portConstraint=eastwest;rotatable=0;whiteSpace=wrap;html=1;fontFamily=Helvetica;fontStyle=1;rounded=0;sketch=1;curveFitting=1;jiggle=2;" vertex="1" parent="pnuQFp47O7qtw_fw8b88-118">
          <mxGeometry y="90" width="160" height="30" as="geometry" />
        </mxCell>
        <mxCell id="pnuQFp47O7qtw_fw8b88-125" value="Report Type" style="text;strokeColor=none;fillColor=none;align=left;verticalAlign=middle;spacingLeft=4;spacingRight=4;overflow=hidden;points=[[0,0.5],[1,0.5]];portConstraint=eastwest;rotatable=0;whiteSpace=wrap;html=1;fontFamily=Helvetica;fontStyle=1;rounded=0;sketch=1;curveFitting=1;jiggle=2;" vertex="1" parent="pnuQFp47O7qtw_fw8b88-118">
          <mxGeometry y="120" width="160" height="30" as="geometry" />
        </mxCell>
        <mxCell id="pnuQFp47O7qtw_fw8b88-124" value="Creation Date" style="text;strokeColor=none;fillColor=none;align=left;verticalAlign=middle;spacingLeft=4;spacingRight=4;overflow=hidden;points=[[0,0.5],[1,0.5]];portConstraint=eastwest;rotatable=0;whiteSpace=wrap;html=1;fontFamily=Helvetica;fontStyle=1;labelBorderColor=none;labelBackgroundColor=none;rounded=0;sketch=1;curveFitting=1;jiggle=2;" vertex="1" parent="pnuQFp47O7qtw_fw8b88-118">
          <mxGeometry y="150" width="160" height="30" as="geometry" />
        </mxCell>
        <mxCell id="pnuQFp47O7qtw_fw8b88-126" value="Report Type" style="swimlane;fontStyle=1;childLayout=stackLayout;horizontal=1;startSize=30;horizontalStack=0;resizeParent=1;resizeParentMax=0;resizeLast=0;collapsible=1;marginBottom=0;whiteSpace=wrap;html=1;fillColor=#FAD9D5;strokeColor=#A65858;fontFamily=Helvetica;align=center;rounded=0;sketch=1;curveFitting=1;jiggle=2;" vertex="1" parent="1">
          <mxGeometry x="-520" y="800" width="160" height="150" as="geometry" />
        </mxCell>
        <mxCell id="pnuQFp47O7qtw_fw8b88-127" value="ID" style="text;strokeColor=none;fillColor=none;align=left;verticalAlign=middle;spacingLeft=4;spacingRight=4;overflow=hidden;points=[[0,0.5],[1,0.5]];portConstraint=eastwest;rotatable=0;whiteSpace=wrap;html=1;fontFamily=Helvetica;fontStyle=1;rounded=0;sketch=1;curveFitting=1;jiggle=2;" vertex="1" parent="pnuQFp47O7qtw_fw8b88-126">
          <mxGeometry y="30" width="160" height="30" as="geometry" />
        </mxCell>
        <mxCell id="pnuQFp47O7qtw_fw8b88-130" value="Name" style="text;strokeColor=none;fillColor=none;align=left;verticalAlign=middle;spacingLeft=4;spacingRight=4;overflow=hidden;points=[[0,0.5],[1,0.5]];portConstraint=eastwest;rotatable=0;whiteSpace=wrap;html=1;fontFamily=Helvetica;fontStyle=1;rounded=0;sketch=1;curveFitting=1;jiggle=2;" vertex="1" parent="pnuQFp47O7qtw_fw8b88-126">
          <mxGeometry y="60" width="160" height="30" as="geometry" />
        </mxCell>
        <mxCell id="pnuQFp47O7qtw_fw8b88-137" value="Description" style="text;strokeColor=none;fillColor=none;align=left;verticalAlign=middle;spacingLeft=4;spacingRight=4;overflow=hidden;points=[[0,0.5],[1,0.5]];portConstraint=eastwest;rotatable=0;whiteSpace=wrap;html=1;fontFamily=Helvetica;fontStyle=1;rounded=0;sketch=1;curveFitting=1;jiggle=2;" vertex="1" parent="pnuQFp47O7qtw_fw8b88-126">
          <mxGeometry y="90" width="160" height="30" as="geometry" />
        </mxCell>
        <mxCell id="pnuQFp47O7qtw_fw8b88-132" value="Slug" style="text;strokeColor=none;fillColor=none;align=left;verticalAlign=middle;spacingLeft=4;spacingRight=4;overflow=hidden;points=[[0,0.5],[1,0.5]];portConstraint=eastwest;rotatable=0;whiteSpace=wrap;html=1;fontFamily=Helvetica;fontStyle=1;rounded=0;sketch=1;curveFitting=1;jiggle=2;" vertex="1" parent="pnuQFp47O7qtw_fw8b88-126">
          <mxGeometry y="120" width="160" height="30" as="geometry" />
        </mxCell>
        <mxCell id="pnuQFp47O7qtw_fw8b88-134" style="edgeStyle=orthogonalEdgeStyle;rounded=0;sketch=1;hachureGap=4;jiggle=2;curveFitting=1;orthogonalLoop=1;jettySize=auto;html=1;entryX=1;entryY=0.5;entryDx=0;entryDy=0;fontFamily=Architects Daughter;fontSource=https%3A%2F%2Ffonts.googleapis.com%2Fcss%3Ffamily%3DArchitects%2BDaughter;fontSize=16;" edge="1" parent="1" source="pnuQFp47O7qtw_fw8b88-125" target="pnuQFp47O7qtw_fw8b88-127">
          <mxGeometry relative="1" as="geometry">
            <Array as="points">
              <mxPoint x="-320" y="715" />
              <mxPoint x="-320" y="845" />
            </Array>
          </mxGeometry>
        </mxCell>
        <mxCell id="pnuQFp47O7qtw_fw8b88-135" style="edgeStyle=orthogonalEdgeStyle;rounded=0;sketch=1;hachureGap=4;jiggle=2;curveFitting=1;orthogonalLoop=1;jettySize=auto;html=1;entryX=1;entryY=0.5;entryDx=0;entryDy=0;fontFamily=Architects Daughter;fontSource=https%3A%2F%2Ffonts.googleapis.com%2Fcss%3Ffamily%3DArchitects%2BDaughter;fontSize=16;" edge="1" parent="1" source="pnuQFp47O7qtw_fw8b88-121" target="pnuQFp47O7qtw_fw8b88-37">
          <mxGeometry relative="1" as="geometry" />
        </mxCell>
        <mxCell id="pnuQFp47O7qtw_fw8b88-136" style="edgeStyle=orthogonalEdgeStyle;rounded=0;sketch=1;hachureGap=4;jiggle=2;curveFitting=1;orthogonalLoop=1;jettySize=auto;html=1;entryX=1;entryY=0.5;entryDx=0;entryDy=0;fontFamily=Architects Daughter;fontSource=https%3A%2F%2Ffonts.googleapis.com%2Fcss%3Ffamily%3DArchitects%2BDaughter;fontSize=16;" edge="1" parent="1" source="pnuQFp47O7qtw_fw8b88-120" target="pnuQFp47O7qtw_fw8b88-25">
          <mxGeometry relative="1" as="geometry">
            <Array as="points">
              <mxPoint x="-320" y="655" />
              <mxPoint x="-320" y="105" />
            </Array>
          </mxGeometry>
        </mxCell>
      </root>
    </mxGraphModel>
  </diagram>
</mxfile>
